<svg viewBox="0 0 512 512" xmlns="http://www.w3.org/2000/svg"><path d="M406.608 366.542c-7.22-26.95-3.82-55.87 10.44-79.848a165.267 165.267 0 0 0 23.08-91.45C436.659 108.314 365.315 38.15 278.345 36.05A166.022 166.022 0 0 0 108.22 201.456h-.016v.574l-35.068 80.506a16.781 16.781 0 0 0 7.474 21.502l27.594 14.744v68.186a35.525 35.525 0 0 0 35.526 35.525h65.014l10.39 38.776a19.867 19.867 0 0 0 24.334 14.048l160.215-42.93a19.867 19.867 0 0 0 14.05-24.334Zm-50.176-148.74-6.159 6.158-.103.102-76.54 76.54-76.642-76.642-6.261-6.262a54.194 54.194 0 0 1 76.642-76.642l6.262 6.261 6.158-6.158a54.194 54.194 0 1 1 76.643 76.643Z" fill="#ffffff" class="fill-000000"></path></svg>